<?xml version="1.0" encoding="UTF-8" standalone="no"?>
<!-- Created with Inkscape (http://www.inkscape.org/) -->

<svg
   width="118.87553mm"
   height="118.87553mm"
   viewBox="0 0 118.87553 118.87553"
   version="1.1"
   id="svg1"
   inkscape:version="1.3 (0e150ed6c4, 2023-07-21)"
   sodipodi:docname="war-shapes.svg"
   xmlns:inkscape="http://www.inkscape.org/namespaces/inkscape"
   xmlns:sodipodi="http://sodipodi.sourceforge.net/DTD/sodipodi-0.dtd"
   xmlns="http://www.w3.org/2000/svg"
   xmlns:svg="http://www.w3.org/2000/svg">
  <sodipodi:namedview
     id="namedview1"
     pagecolor="#505050"
     bordercolor="#eeeeee"
     borderopacity="1"
     inkscape:showpageshadow="0"
     inkscape:pageopacity="0"
     inkscape:pagecheckerboard="0"
     inkscape:deskcolor="#505050"
     inkscape:document-units="mm"
     inkscape:zoom="0.50709218"
     inkscape:cx="545.26575"
     inkscape:cy="440.74826"
     inkscape:window-width="1920"
     inkscape:window-height="1043"
     inkscape:window-x="0"
     inkscape:window-y="0"
     inkscape:window-maximized="1"
     inkscape:current-layer="layer1" />
  <defs
     id="defs1" />
  <g
     inkscape:label="Layer 1"
     inkscape:groupmode="layer"
     id="layer1"
     transform="translate(-136.36495,-1.8261648)">
    <g
       id="g12"
       transform="translate(126.26731,-173.22623)">
      <circle
         style="fill:#00ffff;fill-opacity:0.264368;stroke:#00ffff;stroke-width:2;stroke-dasharray:none"
         id="path1-3"
         cx="69.535408"
         cy="234.49016"
         r="58.437763" />
      <g
         id="g11"
         transform="matrix(1.1132978,-0.29830725,0.29830725,1.1132978,-78.586968,-4.090819)">
        <g
           id="g9"
           style="fill:#d40000">
          <path
             style="fill:#d40000;fill-opacity:1;stroke:none;stroke-width:2;stroke-dasharray:none;stroke-opacity:1"
             d="m 45.930162,229.03635 c -0.429219,-33.35729 3.896573,-28.44676 5.257452,-29.45846 1.525171,-1.13384 20.562407,-2.15499 23.329489,1.34998 2.767081,3.50497 10.091041,9.88396 10.091041,9.88396 l -11.458057,-0.91366 c 0,0 -1.680612,-6.69605 -3.709803,-7.3417 -2.116768,-0.67351 -13.825336,-2.24069 -15.670062,-0.21149 -0.958159,1.05397 -1.553859,4.94076 -1.55134,5.91126 0.0022,0.83161 1.842163,0.72705 4.304913,0.71047 1.854417,-0.0125 27.996595,-0.61999 24.162277,2.6128 -4.372618,3.68664 -34.589105,30.42031 -34.75591,17.45684 z"
             id="path6"
             sodipodi:nodetypes="sssccssssss" />
          <rect
             style="fill:#d40000;fill-opacity:1;stroke:none;stroke-width:1.52863;stroke-dasharray:none;stroke-opacity:1"
             id="rect3"
             width="47.229492"
             height="60.651966"
             x="45.930157"
             y="210.40466"
             ry="12.787232"
             rx="7.1070571" />
          <path
             style="fill:#d40000;fill-opacity:1;stroke:none;stroke-width:2;stroke-dasharray:none;stroke-opacity:1"
             d="m 87.080805,216.25414 c 0,0 0.91737,-5.84482 4.70403,-7.00994 3.59721,-1.10683 7.38842,-2.97601 12.374325,-3.12946 1.53785,-0.0473 0.6226,3.57414 0.18447,4.79627 -0.53188,1.48367 -8.131465,1.46922 -9.883945,4.42077 -1.75249,2.95156 -1.5362,8.83788 -1.5362,8.83788 z"
             id="path7"
             sodipodi:nodetypes="csssscc" />
        </g>
        <g
           id="g5"
           transform="translate(0.42507046,-6.3499325)"
           style="fill:#800000">
          <rect
             style="fill:#800000;fill-opacity:1;stroke:none;stroke-width:2.26966;stroke-dasharray:none;stroke-opacity:1"
             id="rect4"
             width="17.375608"
             height="18.631678"
             x="60.02803"
             y="237.96893"
             ry="3.0354979" />
          <rect
             style="fill:#800000;fill-opacity:1;stroke:none;stroke-width:3.49027;stroke-dasharray:none;stroke-opacity:1"
             id="rect5"
             width="6.5995345"
             height="16.257391"
             x="220.65791"
             y="103.08559"
             ry="2.1730177"
             transform="matrix(0.71163213,0.70255229,-0.71163213,0.70255229,0,0)" />
          <rect
             style="fill:#800000;fill-opacity:1;stroke:none;stroke-width:3.49027;stroke-dasharray:none;stroke-opacity:1"
             id="rect5-1"
             width="6.5995345"
             height="16.257391"
             x="221.43219"
             y="135.45605"
             ry="2.1730177"
             transform="matrix(0.71163213,0.70255229,-0.71163213,0.70255229,0,0)" />
          <rect
             style="fill:#800000;fill-opacity:1;stroke:none;stroke-width:3.49027;stroke-dasharray:none;stroke-opacity:1"
             id="rect5-2"
             width="6.5995345"
             height="16.257391"
             x="121.40779"
             y="-247.16805"
             ry="2.1730177"
             transform="matrix(-0.70255229,0.71163213,-0.70255229,-0.71163213,0,0)" />
          <rect
             style="fill:#800000;fill-opacity:1;stroke:none;stroke-width:3.49027;stroke-dasharray:none;stroke-opacity:1"
             id="rect5-1-0"
             width="6.5995345"
             height="16.257391"
             x="121.18043"
             y="-214.67357"
             ry="2.1730177"
             transform="matrix(-0.70255229,0.71163213,-0.70255229,-0.71163213,0,0)" />
        </g>
      </g>
    </g>
  </g>
</svg>
